<svg width="100" height="100" viewBox="0 0 100 100" fill="none" xmlns="http://www.w3.org/2000/svg">
<circle cx="50" cy="50" r="45" stroke="#F4BC2A" stroke-width="10"/>
<path d="M40.375 67H32.4453V37.4141H40.375V67ZM31.9805 29.7578C31.9805 28.5729 32.3724 27.5977 33.1562 26.832C33.9583 26.0664 35.043 25.6836 36.4102 25.6836C37.7591 25.6836 38.8346 26.0664 39.6367 26.832C40.4388 27.5977 40.8398 28.5729 40.8398 29.7578C40.8398 30.9609 40.4297 31.9453 39.6094 32.7109C38.8073 33.4766 37.7409 33.8594 36.4102 33.8594C35.0794 33.8594 34.0039 33.4766 33.1836 32.7109C32.3815 31.9453 31.9805 30.9609 31.9805 29.7578ZM52.5036 37.4141L52.7497 40.832C54.8643 38.1888 57.6989 36.8672 61.2536 36.8672C64.389 36.8672 66.7223 37.7878 68.2536 39.6289C69.7848 41.4701 70.5687 44.2227 70.6052 47.8867V67H62.7028V48.0781C62.7028 46.401 62.3382 45.1888 61.6091 44.4414C60.8799 43.6758 59.6677 43.293 57.9723 43.293C55.7484 43.293 54.0804 44.2409 52.9684 46.1367V67H45.0661V37.4141H52.5036Z" fill="#F4BC2A"/>
</svg>
