<svg width="100" height="101" viewBox="0 0 100 101" fill="none" xmlns="http://www.w3.org/2000/svg">
<path d="M28.125 22.1399C25.625 22.1399 27.0834 29.4316 28.125 33.0774L40.6251 26.8274C37.5 25.2649 30.625 22.1399 28.125 22.1399Z" fill="#F4BC2A"/>
<path d="M75.0001 22.1399C73.7501 20.8899 67.1876 24.7441 64.0626 26.8274L76.5626 34.64C76.5626 30.9941 76.2501 23.3899 75.0001 22.1399Z" fill="#F4BC2A"/>
<path d="M28.125 22.1399C25.625 22.1399 27.0834 29.4316 28.125 33.0774L40.6251 26.8274C37.5 25.2649 30.625 22.1399 28.125 22.1399Z" stroke="#F4BC2A" stroke-width="0.3"/>
<path d="M75.0001 22.1399C73.7501 20.8899 67.1876 24.7441 64.0626 26.8274L76.5626 34.64C76.5626 30.9941 76.2501 23.3899 75.0001 22.1399Z" stroke="#F4BC2A" stroke-width="0.3"/>
<path d="M37.5 78.1458C39.4296 78.1458 42.1875 76.5833 42.1875 76.5833V82.8333H39.0625C37.2319 82.8333 36.1411 83.315 34.375 82.8333C33.0586 82.4743 32.3718 82.0475 31.25 81.2708C29.831 80.2884 29.1074 79.5648 28.125 78.1458C27.3483 77.024 27.1727 76.2412 26.5625 75.0208C25.9523 73.8004 25.9648 72.8606 25 71.8958C24.0352 70.931 21.875 71.6977 21.875 70.3333C21.875 68.9689 23.6356 68.7708 25 68.7708C26.3644 68.7708 27.1602 69.3685 28.125 70.3333C29.0898 71.2981 28.9108 72.3365 29.6875 73.4583C30.6699 74.8773 31.3564 75.6567 32.8125 76.5833C34.4404 77.6193 35.5704 78.1458 37.5 78.1458Z" fill="#F4BC2A" stroke="#F4BC2A" stroke-width="0.3"/>
<circle cx="50" cy="50.0208" r="46" stroke="#F4BC2A" stroke-width="8"/>
<ellipse cx="50" cy="48.4583" rx="31.25" ry="23.4375" fill="#F4BC2A"/>
<path d="M39.0625 70.7708C39.0625 69.6662 39.9579 68.7708 41.0625 68.7708H60.6378C61.687 68.7708 62.5579 69.5817 62.6327 70.6283L64.0625 90.6458L39.0625 95.3333V70.7708Z" fill="#F4BC2A"/>
</svg>
